# xmcd CD database file
#
# Track frame offsets:
#	151
#	4923
#	18574
#	34933
#	54536
#	64812
#	74069
#	92026
#	104795
#	118229
#	132115
#	143021
#	154908
#	176029
#
# Disc length: 2469 seconds
#
# Revision: 3
# Processed by: cddbd v1.5.1PL2 Copyright (c) Steve Scherf et al.
# Submitted via: CDex 1.51
#
DISCID=d209a30e
DTITLE=Make-Up - In Mass Mind - Dischord, Black Gemini
DYEAR=1998
DGENRE=Rock
TTITLE0=Black Wire Pt. 1
TTITLE1=Live InThe Rhythm Hive
TTITLE2=Joy Of Sound
TTITLE3=Watch It With That Thing
TTITLE4=Drop The Needle
TTITLE5=Earth Worm Pt. 1
TTITLE6=Do You Like Gospel Music?
TTITLE7=Come Up To The Microphone
TTITLE8=Center Of The Earth
TTITLE9=(I've Heard About) Saturday Nite
TTITLE10=Earth Worm Pt. 2
TTITLE11=Time Machine
TTITLE12=Caught Up In The Rapture
TTITLE13=Black Wire Pt. 2
EXTD=YEAR: 1998
EXTT0=
EXTT1=
EXTT2=
EXTT3=
EXTT4=
EXTT5=
EXTT6=
EXTT7=
EXTT8=
EXTT9=
EXTT10=
EXTT11=
EXTT12=
EXTT13=
PLAYORDER=
